<svg width="260" height="260" viewBox="0 0 260 260" fill="none" xmlns="http://www.w3.org/2000/svg">
<path d="M108.771 145.948C106.747 145.948 105.082 145.588 103.801 144.893C102.52 144.198 101.572 143.22 100.957 141.959C100.343 140.697 100.061 139.256 100.061 137.609C100.086 135.962 100.394 134.211 100.983 132.332L106.106 116.863C106.644 115.242 106.824 113.878 106.696 112.719C106.568 111.561 106.081 110.686 105.261 110.068C104.441 109.451 103.212 109.142 101.623 109.142C100.035 109.142 98.3701 109.554 96.6794 110.351C94.9886 111.149 93.3491 112.282 91.7096 113.723C90.0701 115.165 88.4818 116.915 86.9448 118.922C85.6896 120.544 84.5368 122.32 83.4609 124.25C82.9485 125.177 82.5386 126.155 82.2056 127.159L76.8516 143.683C76.6467 144.378 76.2368 144.893 75.6732 145.253C75.1096 145.614 74.213 145.768 72.9834 145.768C72.138 145.768 71.3439 145.588 70.5754 145.202C69.8325 144.816 69.6532 144.121 70.0118 143.117L82.4618 103.299C82.8204 102.218 83.5633 100.905 84.0757 100.596C84.588 100.262 84.7417 100.004 85.8433 99.9787C87.0729 99.9787 87.867 99.9272 88.7636 100.648C89.3016 101.06 90.1982 101.858 89.6346 103.248L86.996 112.333C88.2257 110.763 89.5322 109.399 90.9155 108.215C92.2988 107.031 93.7334 106.027 95.1679 105.204C96.6025 104.38 98.0883 103.762 99.5741 103.351C101.06 102.939 102.571 102.759 104.057 102.759C107.106 102.759 109.385 103.453 110.948 104.843C112.511 106.233 113.356 108.189 113.561 110.712C113.74 113.234 113.305 116.168 112.229 119.489L107.823 133.027C106.977 135.601 106.773 137.403 107.208 138.381C107.669 139.385 108.771 139.874 110.538 139.874C111.281 139.874 111.819 140.183 112.152 140.8C112.485 141.418 112.562 142.113 112.434 142.885C112.306 143.657 111.922 144.352 111.307 144.97C110.692 145.588 109.821 145.897 108.694 145.897L108.771 145.948Z" fill="#C6AAA7"/>
<path d="M193.41 97.4563C196.494 97.4563 198.995 94.9442 198.995 91.8453C198.995 88.7464 196.494 86.2342 193.41 86.2342C190.326 86.2342 187.826 88.7464 187.826 91.8453C187.826 94.9442 190.326 97.4563 193.41 97.4563Z" fill="#938A8A"/>
<path d="M219.898 97.4563C222.983 97.4563 225.483 94.9442 225.483 91.8453C225.483 88.7464 222.983 86.2342 219.898 86.2342C216.814 86.2342 214.314 88.7464 214.314 91.8453C214.314 94.9442 216.814 97.4563 219.898 97.4563Z" fill="#938A8A"/>
<path d="M25.9759 145.948C22.0821 145.948 18.5213 145.279 15.3191 143.941C12.1169 142.602 9.37591 140.646 7.09597 138.098C4.81604 135.55 3.07407 132.487 1.84444 128.909C0.614814 125.331 0 121.316 0 116.863C0 113.157 0.409876 109.322 1.22963 105.332C2.04938 101.369 3.30462 97.4306 4.94413 93.5698C6.60925 89.709 8.63301 86.0541 11.041 82.6051C13.449 79.1561 16.2413 76.1446 19.4179 73.4935C22.5944 70.8682 26.1552 68.7833 30.0746 67.2905C33.9941 65.7976 38.2721 65.0255 42.8576 65.0255C46.7514 65.0255 50.2866 65.6947 53.4888 67.0331C56.6653 68.3715 59.3807 70.3019 61.6094 72.8243C63.8381 75.3467 65.6057 78.3839 66.8354 81.9616C68.065 85.5393 68.6798 89.5288 68.6798 93.9301C68.6798 97.9454 68.2443 102.012 67.3477 106.13C66.4767 110.248 65.1959 114.212 63.5051 118.099C61.8144 121.96 59.7394 125.563 57.2801 128.935C54.8209 132.281 52.0286 135.241 48.8777 137.789C45.7268 140.337 42.2428 142.319 38.4258 143.735C34.6089 145.15 30.4589 145.871 25.9503 145.871L25.9759 145.948ZM27.1799 139.102C30.7663 139.102 34.0965 138.484 37.1706 137.223C40.2447 135.962 43.0369 134.237 45.5474 132.023C48.0579 129.81 50.2866 127.262 52.2848 124.379C54.2573 121.471 55.8968 118.382 57.2289 115.087C58.5354 111.793 59.5344 108.447 60.2261 105.049C60.9178 101.677 61.2764 98.3572 61.2764 95.1398C61.2764 91.382 60.8665 88.0617 60.0212 85.1532C59.2014 82.2447 57.9462 79.8253 56.3067 77.8691C54.6416 75.913 52.5922 74.4459 50.1842 73.4421C47.7505 72.4382 44.9326 71.9492 41.7305 71.9492C38.2465 71.9492 34.9931 72.5927 31.9191 73.8281C28.845 75.0893 26.0527 76.8396 23.5166 79.0531C20.9805 81.2924 18.7262 83.8405 16.7281 86.749C14.7555 89.6575 13.0648 92.7461 11.6815 96.015C10.2981 99.2838 9.24782 102.604 8.55615 105.95C7.86449 109.296 7.50585 112.565 7.50585 115.731C7.50585 119.489 7.91572 122.809 8.76109 125.717C9.58084 128.626 10.8361 131.045 12.4756 133.053C14.1151 135.035 16.1901 136.554 18.6493 137.557C21.1086 138.587 23.9521 139.076 27.2311 139.076L27.1799 139.102Z" fill="#C6AAA7"/>
<path d="M134.644 145.768C132.339 145.768 130.366 145.253 128.701 144.198C127.061 143.143 125.781 141.624 124.884 139.642C123.987 137.66 123.552 135.318 123.552 132.641C123.552 130.273 123.885 127.725 124.551 124.997C125.217 122.269 126.242 119.566 127.599 116.941C128.957 114.315 130.673 111.896 132.723 109.734C134.772 107.572 137.18 105.821 139.973 104.534C142.739 103.248 145.916 102.604 149.425 102.604C151.244 102.604 153.012 102.861 154.702 103.402C156.419 103.942 158.033 104.689 159.595 105.667L171.943 67.6508C172.327 66.5698 172.763 65.8749 173.275 65.566C173.787 65.2571 174.556 65.077 175.555 65.077C177.194 65.077 178.27 65.3344 178.706 65.8491C179.141 66.3639 179.192 67.1618 178.834 68.2171L157.828 132.899C157.034 135.472 156.906 137.274 157.469 138.252C158.033 139.256 159.493 139.745 161.85 139.745C162.49 139.745 162.951 140.054 163.259 140.672C163.54 141.289 163.643 141.984 163.489 142.757C163.335 143.529 163.002 144.224 162.413 144.841C161.824 145.459 161.03 145.768 160.005 145.768C158.135 145.768 156.572 145.536 155.317 145.047C154.062 144.558 153.089 143.915 152.346 143.065C151.628 142.242 151.116 141.289 150.783 140.208C150.45 139.127 150.322 138.046 150.373 136.914L150.296 136.116C148.477 138.587 146.607 140.517 144.686 141.907C142.765 143.297 140.946 144.301 139.204 144.893C137.462 145.485 135.925 145.768 134.593 145.768H134.644ZM136.898 139.333C138.769 139.333 140.639 138.716 142.509 137.532C144.379 136.348 146.249 134.546 148.17 132.204C150.066 129.861 151.91 127.082 153.729 123.864L157.905 110.969C156.342 110.223 154.907 109.682 153.575 109.399C152.243 109.116 150.885 108.962 149.579 108.962C146.889 108.962 144.532 109.476 142.432 110.48C140.357 111.51 138.564 112.874 137.103 114.598C135.643 116.323 134.414 118.202 133.491 120.235C132.544 122.268 131.877 124.302 131.442 126.309C131.006 128.317 130.802 130.145 130.802 131.74C130.802 133.336 131.032 134.778 131.493 135.884C131.954 136.991 132.646 137.84 133.568 138.432C134.49 139.024 135.618 139.333 136.898 139.333Z" fill="#C6AAA7"/>
<path d="M188.363 145.691C185.494 145.691 183.189 145.047 181.472 143.76C179.756 142.473 178.731 140.646 178.373 138.252C178.04 135.859 178.373 133.053 179.372 129.836L187.313 105.513C187.697 104.432 188.133 103.737 188.645 103.428C189.158 103.119 189.926 102.939 190.925 102.939C192.565 102.939 193.641 103.196 194.076 103.711C194.537 104.226 194.563 105.024 194.204 106.079L186.263 130.325C185.622 132.358 185.315 134.057 185.366 135.395C185.417 136.734 185.879 137.737 186.775 138.407C187.672 139.076 189.004 139.411 190.823 139.411C192.257 139.411 193.769 138.999 195.357 138.201C196.945 137.403 198.534 136.245 200.122 134.726C201.736 133.233 203.298 131.432 204.81 129.372C206.347 127.313 207.704 125.023 208.934 122.474L214.467 105.487C214.852 104.406 215.287 103.711 215.8 103.402C216.312 103.093 217.08 102.913 218.079 102.913C219.745 102.913 220.795 103.17 221.256 103.685C221.717 104.2 221.743 104.998 221.384 106.053L212.725 132.873C211.88 135.447 211.675 137.248 212.162 138.227C212.649 139.23 213.75 139.719 215.441 139.719C216.184 139.719 216.722 140.028 217.055 140.646C217.388 141.264 217.465 141.959 217.337 142.731C217.208 143.503 216.824 144.198 216.158 144.816C215.518 145.433 214.647 145.742 213.52 145.742C211.957 145.742 210.65 145.511 209.549 145.047C208.447 144.584 207.576 143.966 206.936 143.168C206.296 142.37 205.834 141.444 205.578 140.389C205.322 139.333 205.168 138.201 205.168 136.965L205.322 135.601C204.092 137.197 202.786 138.638 201.403 139.874C200.019 141.109 198.585 142.165 197.125 143.014C195.664 143.863 194.179 144.533 192.718 144.996C191.258 145.459 189.798 145.691 188.338 145.691H188.363Z" fill="#C6AAA7"/>
<path d="M236.37 143.22C231.887 141.238 229.582 138.947 228.121 136.554C226.764 134.083 225.406 131.74 230.709 128.986C254.712 116.22 235.909 95.7833 250.998 72.8501C251.638 71.6146 253.534 68.5002 253.995 68.0112C254.482 67.5221 254.789 66.7757 255.481 66.4926C256.531 66.0036 257.684 66.3382 258.145 66.7757C258.555 67.2133 258.76 68.0884 258.529 69.3753C242.544 94.9854 261.834 118.485 241.724 133.619C240.443 134.778 239.752 135.756 239.752 136.554C239.752 137.377 240.52 138.021 242.057 138.51C243.21 138.87 244.337 139.024 245.439 138.973C246.54 138.921 247.642 138.716 248.743 138.381C249.819 138.046 250.767 137.686 251.561 137.3C252.407 137.017 256.377 134.932 256.813 134.906C257.402 134.906 258.119 135.37 258.913 136.245C259.733 137.145 260.066 137.943 259.989 138.535C259.887 139.153 259.605 139.719 259.093 140.208C258.299 141.238 252.74 143.889 250.306 144.352C248.154 144.893 245.772 145.047 243.364 144.893C240.93 144.738 238.625 144.146 236.447 143.194L236.37 143.22Z" fill="#C6AAA7"/>
<path d="M111.298 185.786C111.117 185.786 110.91 185.786 110.652 185.837C110.394 185.863 110.162 185.914 109.929 185.94C109.697 185.966 109.491 186.017 109.284 186.043C109.103 186.069 108.974 186.095 108.897 186.095C108.768 186.095 108.535 186.069 108.251 185.992C107.967 185.914 107.658 185.837 107.374 185.76C107.064 185.657 106.754 185.554 106.47 185.451C106.186 185.348 105.98 185.271 105.851 185.194C105.851 184.962 105.877 184.782 105.928 184.628C105.98 184.473 106.083 184.37 106.212 184.37C106.444 184.37 106.987 184.422 107.89 184.525C108.794 184.628 109.904 184.679 111.272 184.679H116.744C116.744 184.447 116.719 184.19 116.719 183.907V181.565C115.118 181.436 113.905 180.973 113.001 180.123C112.098 179.3 111.633 178.193 111.633 176.854C111.633 176.134 111.762 175.49 112.046 174.924C112.33 174.358 112.717 173.843 113.234 173.457C113.75 173.045 114.344 172.736 115.066 172.505C115.789 172.273 116.589 172.17 117.467 172.17C118.345 172.17 119.145 172.273 119.868 172.505C120.591 172.736 121.21 173.045 121.701 173.457C122.217 173.869 122.604 174.358 122.888 174.924C123.172 175.49 123.301 176.159 123.301 176.854C123.301 178.167 122.862 179.248 121.959 180.098C121.055 180.947 119.842 181.41 118.319 181.539V182.877C118.319 183.083 118.319 183.366 118.293 183.701C118.293 184.061 118.216 184.37 118.19 184.653H124.334C124.566 184.653 124.824 184.653 125.108 184.602C125.392 184.55 125.65 184.525 125.934 184.499C126.218 184.473 126.451 184.422 126.657 184.396C126.864 184.37 127.044 184.344 127.199 184.344C127.586 184.344 127.974 184.37 128.335 184.422C128.696 184.473 128.929 184.576 129.006 184.731C129.084 184.859 129.135 185.014 129.135 185.245C129.135 185.477 129.084 185.657 129.006 185.786H111.323H111.298ZM113.802 194.717C112.95 194.717 112.356 194.537 111.995 194.151C111.633 193.765 111.452 193.25 111.452 192.607V189.75C111.452 189.492 111.401 189.363 111.272 189.338L110.213 188.977C110.213 188.797 110.265 188.617 110.317 188.437C110.368 188.257 110.471 188.179 110.601 188.179C110.884 188.179 111.168 188.179 111.504 188.179C111.814 188.179 112.098 188.205 112.33 188.231C112.537 188.231 112.717 188.282 112.846 188.385C112.975 188.463 113.053 188.566 113.053 188.694C113.053 188.771 113.053 188.9 113.053 189.08C113.053 189.261 113.053 189.415 113.053 189.518V192.658C113.053 192.993 113.13 193.224 113.311 193.353C113.492 193.482 113.802 193.533 114.24 193.533H121.03C121.546 193.533 122.062 193.482 122.578 193.379C123.095 193.276 123.482 193.224 123.74 193.224C124.127 193.224 124.489 193.224 124.798 193.25C125.108 193.276 125.315 193.353 125.444 193.456C125.547 193.585 125.599 193.765 125.599 194.048C125.599 194.331 125.521 194.537 125.34 194.666H113.853L113.802 194.717ZM117.493 180.381C118.138 180.381 118.706 180.303 119.248 180.123C119.79 179.969 120.229 179.737 120.642 179.428C121.03 179.119 121.339 178.759 121.546 178.347C121.752 177.935 121.856 177.421 121.856 176.88C121.856 176.34 121.752 175.851 121.546 175.413C121.339 174.976 121.03 174.615 120.642 174.306C120.255 173.997 119.79 173.766 119.248 173.611C118.706 173.457 118.138 173.38 117.493 173.38C116.848 173.38 116.28 173.457 115.738 173.611C115.195 173.766 114.757 173.997 114.344 174.306C113.956 174.615 113.647 174.976 113.44 175.413C113.234 175.851 113.13 176.34 113.13 176.88C113.13 177.421 113.234 177.91 113.44 178.347C113.647 178.785 113.956 179.145 114.344 179.428C114.731 179.737 115.195 179.969 115.738 180.123C116.28 180.278 116.848 180.381 117.493 180.381Z" fill="#938A8A"/>
<path d="M135.692 183.006C135.434 183.032 135.202 183.083 134.969 183.109C134.737 183.135 134.53 183.186 134.324 183.212C134.143 183.238 134.014 183.263 133.937 183.263C133.808 183.263 133.575 183.238 133.291 183.16C133.007 183.083 132.698 183.006 132.414 182.903C132.104 182.8 131.794 182.697 131.51 182.594C131.226 182.491 131.02 182.414 130.891 182.337C130.891 182.105 130.916 181.925 130.968 181.745C131.02 181.59 131.123 181.487 131.252 181.487C131.484 181.487 132.027 181.539 132.93 181.642C133.834 181.745 134.944 181.796 136.312 181.796H149.348C149.58 181.796 149.838 181.796 150.122 181.745C150.406 181.719 150.664 181.668 150.948 181.642C151.232 181.616 151.465 181.565 151.671 181.539C151.878 181.513 152.058 181.487 152.213 181.487C152.601 181.487 152.988 181.513 153.349 181.565C153.711 181.616 153.943 181.719 154.02 181.873C154.098 182.002 154.149 182.157 154.149 182.388C154.149 182.62 154.098 182.8 154.02 182.929H143.436V183.958C143.436 184.705 143.307 185.322 143.049 185.786H146.044C146.276 185.786 146.534 185.786 146.87 185.734C147.205 185.683 147.438 185.683 147.567 185.683C147.696 185.683 147.902 185.683 148.186 185.683C148.47 185.683 148.703 185.734 148.883 185.76C149.064 185.786 149.193 185.863 149.27 185.94C149.322 186.017 149.374 186.095 149.374 186.198C149.374 186.275 149.374 186.429 149.296 186.661C149.245 186.893 149.193 187.176 149.167 187.485C149.116 187.793 149.064 188.102 149.038 188.411C148.986 188.72 148.961 189.003 148.961 189.209C148.961 189.209 148.961 189.286 148.961 189.415C148.961 189.518 148.935 189.595 148.935 189.621C149.322 189.698 149.503 189.878 149.503 190.161C149.503 190.316 149.451 190.444 149.348 190.547C149.245 190.65 149.038 190.728 148.754 190.728H138.015V193.121C138.015 193.379 138.093 193.559 138.222 193.662C138.351 193.765 138.532 193.816 138.712 193.816H146.302C146.818 193.816 147.334 193.765 147.851 193.662C148.367 193.559 148.754 193.507 149.012 193.507C149.4 193.507 149.761 193.507 150.097 193.559C150.432 193.559 150.639 193.662 150.742 193.791C150.845 193.893 150.897 194.074 150.897 194.357C150.897 194.614 150.819 194.82 150.69 194.975H138.764C138.015 194.975 137.422 194.846 137.034 194.588C136.647 194.331 136.441 193.893 136.441 193.25V191.011C136.441 191.011 136.441 190.856 136.441 190.779C136.441 190.702 136.363 190.65 136.286 190.625L135.46 190.239C135.46 190.239 135.486 190.033 135.563 189.853C135.641 189.672 135.718 189.595 135.795 189.595C135.873 189.595 136.002 189.595 136.208 189.595C136.389 189.595 136.57 189.621 136.776 189.647C136.983 189.672 137.189 189.647 137.37 189.672C137.551 189.672 137.706 189.698 137.835 189.698H147.593L147.696 186.918H139.255C138.996 186.918 138.712 186.944 138.377 186.996C138.041 187.047 137.809 187.073 137.654 187.073C137.499 187.073 137.318 187.047 137.086 186.996C136.854 186.944 136.621 186.893 136.363 186.815C136.105 186.764 135.899 186.687 135.692 186.635C135.486 186.584 135.357 186.506 135.279 186.455C135.279 186.198 135.279 185.992 135.357 185.863C135.408 185.734 135.46 185.657 135.511 185.657C135.666 185.657 135.899 185.683 136.208 185.709C136.518 185.709 136.828 185.734 137.189 185.734C137.525 185.734 137.886 185.734 138.274 185.76C138.661 185.76 138.996 185.76 139.306 185.76H142.223C142.146 185.528 142.068 185.271 142.042 184.988C142.017 184.705 141.991 184.396 141.991 184.061V182.903H136.467C136.286 182.903 136.079 182.903 135.821 182.955L135.692 183.006ZM136.467 179.094C136.131 178.836 135.95 178.347 135.924 177.652V174.1C135.924 173.894 135.821 173.714 135.641 173.56C135.615 173.534 135.486 173.457 135.331 173.38C135.15 173.302 134.944 173.2 134.685 173.122C134.685 172.942 134.685 172.762 134.789 172.556C134.892 172.35 134.969 172.247 135.047 172.247C135.15 172.247 135.305 172.247 135.486 172.247C135.692 172.247 135.899 172.247 136.131 172.299C136.363 172.299 136.57 172.35 136.776 172.35C136.983 172.376 137.164 172.402 137.293 172.402H144.959C145.218 172.402 145.476 172.402 145.76 172.35C146.044 172.324 146.302 172.273 146.56 172.247C146.818 172.196 147.05 172.17 147.283 172.144C147.489 172.144 147.67 172.118 147.825 172.118C148.264 172.144 148.599 172.17 148.806 172.17C149.012 172.17 149.167 172.247 149.296 172.376C149.374 172.505 149.425 172.685 149.425 172.942C149.425 173.2 149.348 173.405 149.193 173.534H137.448V177.498C137.448 177.833 137.551 178.038 137.731 178.167C137.912 178.296 138.144 178.322 138.377 178.322H144.959C145.218 178.322 145.502 178.322 145.811 178.27C146.121 178.219 146.405 178.193 146.689 178.141C146.973 178.09 147.231 178.064 147.463 178.038C147.696 178.013 147.876 177.987 148.031 177.987C148.47 177.987 148.806 178.013 149.038 178.038C149.27 178.038 149.451 178.141 149.554 178.27C149.632 178.399 149.683 178.579 149.683 178.862C149.683 179.145 149.606 179.351 149.451 179.48H138.196C137.396 179.48 136.828 179.377 136.492 179.094H136.467Z" fill="#938A8A"/>
</svg>
